<svg width="113" height="101" viewBox="0 0 113 101" fill="none" xmlns="http://www.w3.org/2000/svg">
<path d="M3.344 3.76C2.992 4.112 2.568 4.288 2.072 4.288C1.576 4.288 1.152 4.112 0.8 3.76C0.448 3.408 0.272 2.984 0.272 2.488C0.272 1.992 0.44 1.568 0.776 1.216C1.128 0.864 1.56 0.688 2.072 0.688C2.568 0.688 2.992 0.864 3.344 1.216C3.696 1.568 3.872 1.992 3.872 2.488C3.872 2.984 3.696 3.408 3.344 3.76ZM21.4612 3.76C21.1092 4.112 20.6852 4.288 20.1892 4.288C19.6932 4.288 19.2692 4.112 18.9172 3.76C18.5652 3.408 18.3892 2.984 18.3892 2.488C18.3892 1.992 18.5572 1.568 18.8932 1.216C19.2452 0.864 19.6772 0.688 20.1892 0.688C20.6852 0.688 21.1092 0.864 21.4612 1.216C21.8132 1.568 21.9892 1.992 21.9892 2.488C21.9892 2.984 21.8132 3.408 21.4612 3.76ZM39.5784 3.76C39.2264 4.112 38.8024 4.288 38.3064 4.288C37.8104 4.288 37.3864 4.112 37.0344 3.76C36.6824 3.408 36.5064 2.984 36.5064 2.488C36.5064 1.992 36.6744 1.568 37.0104 1.216C37.3624 0.864 37.7944 0.688 38.3064 0.688C38.8024 0.688 39.2264 0.864 39.5784 1.216C39.9304 1.568 40.1064 1.992 40.1064 2.488C40.1064 2.984 39.9304 3.408 39.5784 3.76ZM57.6956 3.76C57.3436 4.112 56.9196 4.288 56.4236 4.288C55.9276 4.288 55.5036 4.112 55.1516 3.76C54.7996 3.408 54.6236 2.984 54.6236 2.488C54.6236 1.992 54.7916 1.568 55.1276 1.216C55.4796 0.864 55.9116 0.688 56.4236 0.688C56.9196 0.688 57.3436 0.864 57.6956 1.216C58.0476 1.568 58.2236 1.992 58.2236 2.488C58.2236 2.984 58.0476 3.408 57.6956 3.76ZM75.8128 3.76C75.4608 4.112 75.0368 4.288 74.5408 4.288C74.0448 4.288 73.6208 4.112 73.2688 3.76C72.9168 3.408 72.7408 2.984 72.7408 2.488C72.7408 1.992 72.9088 1.568 73.2448 1.216C73.5968 0.864 74.0288 0.688 74.5408 0.688C75.0368 0.688 75.4608 0.864 75.8128 1.216C76.1648 1.568 76.3408 1.992 76.3408 2.488C76.3408 2.984 76.1648 3.408 75.8128 3.76ZM93.9299 3.76C93.5779 4.112 93.1539 4.288 92.6579 4.288C92.1619 4.288 91.7379 4.112 91.3859 3.76C91.0339 3.408 90.8579 2.984 90.8579 2.488C90.8579 1.992 91.0259 1.568 91.3619 1.216C91.7139 0.864 92.1459 0.688 92.6579 0.688C93.1539 0.688 93.5779 0.864 93.9299 1.216C94.2819 1.568 94.4579 1.992 94.4579 2.488C94.4579 2.984 94.2819 3.408 93.9299 3.76ZM112.047 3.76C111.695 4.112 111.271 4.288 110.775 4.288C110.279 4.288 109.855 4.112 109.503 3.76C109.151 3.408 108.975 2.984 108.975 2.488C108.975 1.992 109.143 1.568 109.479 1.216C109.831 0.864 110.263 0.688 110.775 0.688C111.271 0.688 111.695 0.864 112.047 1.216C112.399 1.568 112.575 1.992 112.575 2.488C112.575 2.984 112.399 3.408 112.047 3.76ZM3.344 19.76C2.992 20.112 2.568 20.288 2.072 20.288C1.576 20.288 1.152 20.112 0.8 19.76C0.448 19.408 0.272 18.984 0.272 18.488C0.272 17.992 0.44 17.568 0.776 17.216C1.128 16.864 1.56 16.688 2.072 16.688C2.568 16.688 2.992 16.864 3.344 17.216C3.696 17.568 3.872 17.992 3.872 18.488C3.872 18.984 3.696 19.408 3.344 19.76ZM21.4612 19.76C21.1092 20.112 20.6852 20.288 20.1892 20.288C19.6932 20.288 19.2692 20.112 18.9172 19.76C18.5652 19.408 18.3892 18.984 18.3892 18.488C18.3892 17.992 18.5572 17.568 18.8932 17.216C19.2452 16.864 19.6772 16.688 20.1892 16.688C20.6852 16.688 21.1092 16.864 21.4612 17.216C21.8132 17.568 21.9892 17.992 21.9892 18.488C21.9892 18.984 21.8132 19.408 21.4612 19.76ZM39.5784 19.76C39.2264 20.112 38.8024 20.288 38.3064 20.288C37.8104 20.288 37.3864 20.112 37.0344 19.76C36.6824 19.408 36.5064 18.984 36.5064 18.488C36.5064 17.992 36.6744 17.568 37.0104 17.216C37.3624 16.864 37.7944 16.688 38.3064 16.688C38.8024 16.688 39.2264 16.864 39.5784 17.216C39.9304 17.568 40.1064 17.992 40.1064 18.488C40.1064 18.984 39.9304 19.408 39.5784 19.76ZM57.6956 19.76C57.3436 20.112 56.9196 20.288 56.4236 20.288C55.9276 20.288 55.5036 20.112 55.1516 19.76C54.7996 19.408 54.6236 18.984 54.6236 18.488C54.6236 17.992 54.7916 17.568 55.1276 17.216C55.4796 16.864 55.9116 16.688 56.4236 16.688C56.9196 16.688 57.3436 16.864 57.6956 17.216C58.0476 17.568 58.2236 17.992 58.2236 18.488C58.2236 18.984 58.0476 19.408 57.6956 19.76ZM75.8128 19.76C75.4608 20.112 75.0368 20.288 74.5408 20.288C74.0448 20.288 73.6208 20.112 73.2688 19.76C72.9168 19.408 72.7408 18.984 72.7408 18.488C72.7408 17.992 72.9088 17.568 73.2448 17.216C73.5968 16.864 74.0288 16.688 74.5408 16.688C75.0368 16.688 75.4608 16.864 75.8128 17.216C76.1648 17.568 76.3408 17.992 76.3408 18.488C76.3408 18.984 76.1648 19.408 75.8128 19.76ZM93.9299 19.76C93.5779 20.112 93.1539 20.288 92.6579 20.288C92.1619 20.288 91.7379 20.112 91.3859 19.76C91.0339 19.408 90.8579 18.984 90.8579 18.488C90.8579 17.992 91.0259 17.568 91.3619 17.216C91.7139 16.864 92.1459 16.688 92.6579 16.688C93.1539 16.688 93.5779 16.864 93.9299 17.216C94.2819 17.568 94.4579 17.992 94.4579 18.488C94.4579 18.984 94.2819 19.408 93.9299 19.76ZM112.047 19.76C111.695 20.112 111.271 20.288 110.775 20.288C110.279 20.288 109.855 20.112 109.503 19.76C109.151 19.408 108.975 18.984 108.975 18.488C108.975 17.992 109.143 17.568 109.479 17.216C109.831 16.864 110.263 16.688 110.775 16.688C111.271 16.688 111.695 16.864 112.047 17.216C112.399 17.568 112.575 17.992 112.575 18.488C112.575 18.984 112.399 19.408 112.047 19.76ZM3.344 35.76C2.992 36.112 2.568 36.288 2.072 36.288C1.576 36.288 1.152 36.112 0.8 35.76C0.448 35.408 0.272 34.984 0.272 34.488C0.272 33.992 0.44 33.568 0.776 33.216C1.128 32.864 1.56 32.688 2.072 32.688C2.568 32.688 2.992 32.864 3.344 33.216C3.696 33.568 3.872 33.992 3.872 34.488C3.872 34.984 3.696 35.408 3.344 35.76ZM21.4612 35.76C21.1092 36.112 20.6852 36.288 20.1892 36.288C19.6932 36.288 19.2692 36.112 18.9172 35.76C18.5652 35.408 18.3892 34.984 18.3892 34.488C18.3892 33.992 18.5572 33.568 18.8932 33.216C19.2452 32.864 19.6772 32.688 20.1892 32.688C20.6852 32.688 21.1092 32.864 21.4612 33.216C21.8132 33.568 21.9892 33.992 21.9892 34.488C21.9892 34.984 21.8132 35.408 21.4612 35.76ZM39.5784 35.76C39.2264 36.112 38.8024 36.288 38.3064 36.288C37.8104 36.288 37.3864 36.112 37.0344 35.76C36.6824 35.408 36.5064 34.984 36.5064 34.488C36.5064 33.992 36.6744 33.568 37.0104 33.216C37.3624 32.864 37.7944 32.688 38.3064 32.688C38.8024 32.688 39.2264 32.864 39.5784 33.216C39.9304 33.568 40.1064 33.992 40.1064 34.488C40.1064 34.984 39.9304 35.408 39.5784 35.76ZM57.6956 35.76C57.3436 36.112 56.9196 36.288 56.4236 36.288C55.9276 36.288 55.5036 36.112 55.1516 35.76C54.7996 35.408 54.6236 34.984 54.6236 34.488C54.6236 33.992 54.7916 33.568 55.1276 33.216C55.4796 32.864 55.9116 32.688 56.4236 32.688C56.9196 32.688 57.3436 32.864 57.6956 33.216C58.0476 33.568 58.2236 33.992 58.2236 34.488C58.2236 34.984 58.0476 35.408 57.6956 35.76ZM75.8128 35.76C75.4608 36.112 75.0368 36.288 74.5408 36.288C74.0448 36.288 73.6208 36.112 73.2688 35.76C72.9168 35.408 72.7408 34.984 72.7408 34.488C72.7408 33.992 72.9088 33.568 73.2448 33.216C73.5968 32.864 74.0288 32.688 74.5408 32.688C75.0368 32.688 75.4608 32.864 75.8128 33.216C76.1648 33.568 76.3408 33.992 76.3408 34.488C76.3408 34.984 76.1648 35.408 75.8128 35.76ZM93.9299 35.76C93.5779 36.112 93.1539 36.288 92.6579 36.288C92.1619 36.288 91.7379 36.112 91.3859 35.76C91.0339 35.408 90.8579 34.984 90.8579 34.488C90.8579 33.992 91.0259 33.568 91.3619 33.216C91.7139 32.864 92.1459 32.688 92.6579 32.688C93.1539 32.688 93.5779 32.864 93.9299 33.216C94.2819 33.568 94.4579 33.992 94.4579 34.488C94.4579 34.984 94.2819 35.408 93.9299 35.76ZM112.047 35.76C111.695 36.112 111.271 36.288 110.775 36.288C110.279 36.288 109.855 36.112 109.503 35.76C109.151 35.408 108.975 34.984 108.975 34.488C108.975 33.992 109.143 33.568 109.479 33.216C109.831 32.864 110.263 32.688 110.775 32.688C111.271 32.688 111.695 32.864 112.047 33.216C112.399 33.568 112.575 33.992 112.575 34.488C112.575 34.984 112.399 35.408 112.047 35.76ZM3.344 51.76C2.992 52.112 2.568 52.288 2.072 52.288C1.576 52.288 1.152 52.112 0.8 51.76C0.448 51.408 0.272 50.984 0.272 50.488C0.272 49.992 0.44 49.568 0.776 49.216C1.128 48.864 1.56 48.688 2.072 48.688C2.568 48.688 2.992 48.864 3.344 49.216C3.696 49.568 3.872 49.992 3.872 50.488C3.872 50.984 3.696 51.408 3.344 51.76ZM21.4612 51.76C21.1092 52.112 20.6852 52.288 20.1892 52.288C19.6932 52.288 19.2692 52.112 18.9172 51.76C18.5652 51.408 18.3892 50.984 18.3892 50.488C18.3892 49.992 18.5572 49.568 18.8932 49.216C19.2452 48.864 19.6772 48.688 20.1892 48.688C20.6852 48.688 21.1092 48.864 21.4612 49.216C21.8132 49.568 21.9892 49.992 21.9892 50.488C21.9892 50.984 21.8132 51.408 21.4612 51.76ZM39.5784 51.76C39.2264 52.112 38.8024 52.288 38.3064 52.288C37.8104 52.288 37.3864 52.112 37.0344 51.76C36.6824 51.408 36.5064 50.984 36.5064 50.488C36.5064 49.992 36.6744 49.568 37.0104 49.216C37.3624 48.864 37.7944 48.688 38.3064 48.688C38.8024 48.688 39.2264 48.864 39.5784 49.216C39.9304 49.568 40.1064 49.992 40.1064 50.488C40.1064 50.984 39.9304 51.408 39.5784 51.76ZM3.344 67.76C2.992 68.112 2.568 68.288 2.072 68.288C1.576 68.288 1.152 68.112 0.8 67.76C0.448 67.408 0.272 66.984 0.272 66.488C0.272 65.992 0.44 65.568 0.776 65.216C1.128 64.864 1.56 64.688 2.072 64.688C2.568 64.688 2.992 64.864 3.344 65.216C3.696 65.568 3.872 65.992 3.872 66.488C3.872 66.984 3.696 67.408 3.344 67.76ZM21.4612 67.76C21.1092 68.112 20.6852 68.288 20.1892 68.288C19.6932 68.288 19.2692 68.112 18.9172 67.76C18.5652 67.408 18.3892 66.984 18.3892 66.488C18.3892 65.992 18.5572 65.568 18.8932 65.216C19.2452 64.864 19.6772 64.688 20.1892 64.688C20.6852 64.688 21.1092 64.864 21.4612 65.216C21.8132 65.568 21.9892 65.992 21.9892 66.488C21.9892 66.984 21.8132 67.408 21.4612 67.76ZM39.5784 67.76C39.2264 68.112 38.8024 68.288 38.3064 68.288C37.8104 68.288 37.3864 68.112 37.0344 67.76C36.6824 67.408 36.5064 66.984 36.5064 66.488C36.5064 65.992 36.6744 65.568 37.0104 65.216C37.3624 64.864 37.7944 64.688 38.3064 64.688C38.8024 64.688 39.2264 64.864 39.5784 65.216C39.9304 65.568 40.1064 65.992 40.1064 66.488C40.1064 66.984 39.9304 67.408 39.5784 67.76ZM3.344 83.76C2.992 84.112 2.568 84.288 2.072 84.288C1.576 84.288 1.152 84.112 0.8 83.76C0.448 83.408 0.272 82.984 0.272 82.488C0.272 81.992 0.44 81.568 0.776 81.216C1.128 80.864 1.56 80.688 2.072 80.688C2.568 80.688 2.992 80.864 3.344 81.216C3.696 81.568 3.872 81.992 3.872 82.488C3.872 82.984 3.696 83.408 3.344 83.76ZM21.4612 83.76C21.1092 84.112 20.6852 84.288 20.1892 84.288C19.6932 84.288 19.2692 84.112 18.9172 83.76C18.5652 83.408 18.3892 82.984 18.3892 82.488C18.3892 81.992 18.5572 81.568 18.8932 81.216C19.2452 80.864 19.6772 80.688 20.1892 80.688C20.6852 80.688 21.1092 80.864 21.4612 81.216C21.8132 81.568 21.9892 81.992 21.9892 82.488C21.9892 82.984 21.8132 83.408 21.4612 83.76ZM39.5784 83.76C39.2264 84.112 38.8024 84.288 38.3064 84.288C37.8104 84.288 37.3864 84.112 37.0344 83.76C36.6824 83.408 36.5064 82.984 36.5064 82.488C36.5064 81.992 36.6744 81.568 37.0104 81.216C37.3624 80.864 37.7944 80.688 38.3064 80.688C38.8024 80.688 39.2264 80.864 39.5784 81.216C39.9304 81.568 40.1064 81.992 40.1064 82.488C40.1064 82.984 39.9304 83.408 39.5784 83.76ZM3.344 99.76C2.992 100.112 2.568 100.288 2.072 100.288C1.576 100.288 1.152 100.112 0.8 99.76C0.448 99.408 0.272 98.984 0.272 98.488C0.272 97.992 0.44 97.568 0.776 97.216C1.128 96.864 1.56 96.688 2.072 96.688C2.568 96.688 2.992 96.864 3.344 97.216C3.696 97.568 3.872 97.992 3.872 98.488C3.872 98.984 3.696 99.408 3.344 99.76ZM21.4612 99.76C21.1092 100.112 20.6852 100.288 20.1892 100.288C19.6932 100.288 19.2692 100.112 18.9172 99.76C18.5652 99.408 18.3892 98.984 18.3892 98.488C18.3892 97.992 18.5572 97.568 18.8932 97.216C19.2452 96.864 19.6772 96.688 20.1892 96.688C20.6852 96.688 21.1092 96.864 21.4612 97.216C21.8132 97.568 21.9892 97.992 21.9892 98.488C21.9892 98.984 21.8132 99.408 21.4612 99.76ZM39.5784 99.76C39.2264 100.112 38.8024 100.288 38.3064 100.288C37.8104 100.288 37.3864 100.112 37.0344 99.76C36.6824 99.408 36.5064 98.984 36.5064 98.488C36.5064 97.992 36.6744 97.568 37.0104 97.216C37.3624 96.864 37.7944 96.688 38.3064 96.688C38.8024 96.688 39.2264 96.864 39.5784 97.216C39.9304 97.568 40.1064 97.992 40.1064 98.488C40.1064 98.984 39.9304 99.408 39.5784 99.76Z" fill="#F3E200"/>
</svg>
